# xmcd
# 
# Track frame offsets:
#     150
#     10988
#     20996
#     34668
#     48112
#     61464
#     72548
#     85158
#     99812
#     109674
#     124064
#     136834
#     147390
#     161678
#     175178
#     186250
# 
# Disc length: 2650
# 
# Revision: 0
# Processed by: cddbd v1.5.2PL0 Copyright (c) Steve Scherf et al.
# Submitted via: fre:ac v1.0.17
# 
DISCID=db0a5810
DTITLE=Patti Page - Tennessee Waltz
DYEAR=2004
DGENRE=Misc
TTITLE0=How Much Is That Doggie In The Window
TTITLE1=A Poor Man's Roses
TTITLE2=Tennessee Waltz
TTITLE3=Mockin' Bird Hill
TTITLE4=Allegheny Moon
TTITLE5=Back In Your Own Back Yard
TTITLE6=Once In A While
TTITLE7=I Went To Your Wedding
TTITLE8=Come What May
TTITLE9=All My Love
TTITLE10=Cross Over The Bridge
TTITLE11=Old Cape Cod
TTITLE12=With My Eyes Wide Open I'm Dreaming
TTITLE13=Mama From The Train
TTITLE14=Left Right Out Of Your Heart
TTITLE15=Changing Partners
EXTD=
EXTT0=
EXTT1=
EXTT2=
EXTT3=
EXTT4=
EXTT5=
EXTT6=
EXTT7=
EXTT8=
EXTT9=
EXTT10=
EXTT11=
EXTT12=
EXTT13=
EXTT14=
EXTT15=
PLAYORDER=
